<svg xmlns="http://www.w3.org/2000/svg" xmlns:xlink="http://www.w3.org/1999/xlink" preserveAspectRatio="xMidYMid" width="32" height="31.969" viewBox="0 0 32 31.969">
  <defs>
    <style>
      .cls-1 {
        fill: #99a1a7;
        fill-rule: evenodd;
      }
    </style>
  </defs>
  <path d="M31.485,9.418 L16.482,17.503 C16.334,17.583 16.171,17.623 16.008,17.623 C15.843,17.623 15.679,17.582 15.529,17.501 L0.682,9.417 C0.356,9.239 0.155,8.894 0.161,8.522 C0.167,8.149 0.380,7.812 0.712,7.645 L15.714,0.105 C15.999,-0.038 16.333,-0.037 16.616,0.107 L31.464,7.647 C31.795,7.816 32.006,8.154 32.010,8.527 C32.015,8.899 31.812,9.242 31.485,9.418 ZM16.161,2.118 L3.317,8.573 L16.011,15.486 L28.853,8.565 L16.161,2.118 ZM3.675,13.417 L5.811,14.581 L3.145,15.921 L15.839,22.833 L28.681,15.913 L26.181,14.642 L28.324,13.488 L31.292,14.995 C31.623,15.163 31.834,15.502 31.839,15.874 C31.843,16.246 31.640,16.590 31.313,16.766 L16.310,24.851 C16.162,24.931 15.999,24.971 15.836,24.971 C15.671,24.971 15.507,24.930 15.357,24.849 L0.511,16.764 C0.184,16.586 -0.017,16.241 -0.011,15.869 C-0.005,15.497 0.208,15.159 0.540,14.992 L3.675,13.417 ZM0.540,21.993 L3.487,20.636 L5.624,21.800 L3.145,22.921 L15.839,29.833 L28.681,22.912 L26.338,21.768 L28.480,20.613 L31.292,21.994 C31.623,22.163 31.834,22.501 31.839,22.874 C31.843,23.246 31.640,23.590 31.313,23.766 L16.310,31.851 C16.162,31.931 15.999,31.971 15.836,31.971 C15.671,31.971 15.507,31.930 15.357,31.849 L0.511,23.764 C0.184,23.586 -0.017,23.241 -0.011,22.870 C-0.005,22.498 0.208,22.159 0.540,21.993 Z" class="cls-1"/>
</svg>
