<?xml version="1.0" encoding="UTF-8"?><!DOCTYPE svg PUBLIC "-//W3C//DTD SVG 1.1//EN" "http://www.w3.org/Graphics/SVG/1.1/DTD/svg11.dtd"><svg xmlns="http://www.w3.org/2000/svg"><symbol id="icon-card" viewBox="0 0 500 500">
    <path clip-rule="evenodd" d="M272.715 286.341H145.518c-12.538 0-22.715 10.179-22.715 22.715s10.177 22.716 22.715 22.716h127.197c12.537 0 22.712-10.18 22.712-22.716s-10.175-22.715-22.712-22.715zM31.949 386.284c0 20.079 16.264 36.34 36.34 36.34H431.71c20.078 0 36.34-16.261 36.34-36.34V113.718c0-20.079-16.262-36.343-36.34-36.343H68.29c-20.077 0-36.34 16.264-36.34 36.343v272.566zm65.418-263.482h305.267a19.936 19.936 0 0 1 19.99 19.991v25.438H77.375v-25.438a19.936 19.936 0 0 1 19.992-19.991zM77.375 240.914h345.249v116.292a19.938 19.938 0 0 1-19.99 19.992H97.367a19.937 19.937 0 0 1-19.991-19.992V240.914z" fill-rule="evenodd"/>
</symbol><symbol id="icon-document" viewBox="0 0 18 18">
    <title/>
    <path d="M16 0H2C.9 0 0 .9 0 2v14c0 1.1.9 2 2 2h14c1.1 0 2-.9 2-2V2c0-1.1-.9-2-2-2zm-2 6H4V4h10v2zm0 4H4V8h10v2zm-3 4H4v-2h7v2z" fill-rule="evenodd"/>
</symbol><symbol id="icon-facebook" viewBox="0 0 10 19">
    <title>
        facebook
    </title>
    <path d="M9.766.157v2.946H8.014c-.64 0-1.071.134-1.295.402-.223.268-.335.67-.335 1.205v2.11h3.27l-.435 3.303H6.384v8.471H2.97v-8.47H.123V6.82H2.97V4.387c0-1.384.387-2.457 1.161-3.22C4.904.404 5.934.023 7.222.023c1.093 0 1.941.045 2.544.134z" fill-rule="evenodd"/>
</symbol><symbol id="icon-home" viewBox="0 0 32 32">
    <path d="M30.938 16L18 1.188C17.453.594 16.938 0 16 0s-1.453.594-2 1.188l-6 6.87V4a2 2 0 0 0-4 0v8.637L1.063 16C.406 16.734 0 17.188 0 18c0 1.016.797 2 2 2h2v10c0 1.1.9 2 2 2h20c1.1 0 2-.9 2-2V20h2c1.203 0 2-.984 2-2 0-.812-.406-1.266-1.062-2zM24 16v12h-4v-8h-8v8H8V16H6.373L16 4.979 25.627 16H24z"/>
</symbol><symbol id="icon-options" viewBox="0 0 32 32">
    <path d="M29.08 20.045c-.644-.369-.969-1.646-.723-2.838v-1.148c0-1.204-.01-1.252-.01-1.252-.265-1.219.057-2.524.713-2.9.656-.375.687-1.568.068-2.651l-.67-1.171C27.84 7 26.789 6.423 26.123 6.801c-.664.376-2.009.052-2.987-.723l-2.11-1.213c-1.153-.476-2.098-1.483-2.098-2.24S17.906 1.25 16.659 1.25h-1.313c-1.248 0-2.269.609-2.269 1.354 0 .744-.949 1.732-2.107 2.194l-2.208 1.21c-.976.778-2.29 1.12-2.92.76C5.21 6.409 4.188 7 3.568 8.084l-.669 1.171c-.62 1.083-.623 2.258-.008 2.609.615.352.897 1.637.625 2.854 0 0-.023.104-.023 1.339v1.184c.259 1.22-.022 2.5-.626 2.846-.603.344-.59 1.512.029 2.596l.669 1.172c.619 1.084 1.618 1.689 2.218 1.348.601-.344 1.89.015 2.864.796l2.323 1.313c1.157.467 2.105 1.431 2.105 2.144 0 .711 1.021 1.294 2.269 1.294h1.313c1.248 0 2.269-.592 2.269-1.316 0-.724.942-1.707 2.095-2.188l2.226-1.315c.977-.778 2.293-1.119 2.928-.76.633.361 1.658-.23 2.277-1.314l.671-1.172c.621-1.085.602-2.273-.043-2.64zm-13.2 3.939a8.045 8.045 0 1 1 0-16.09 8.045 8.045 0 0 1 0 16.09z"/>
    <circle cx="15.962" cy="15.859" r="3.356"/>
</symbol><symbol id="icon-search" viewBox="0 0 512 512">
    <path d="M497.913 497.913c-18.782 18.782-49.225 18.782-68.008 0l-84.862-84.863c-34.889 22.382-76.13 35.717-120.659 35.717C100.469 448.767 0 348.312 0 224.383S100.469 0 224.384 0c123.931 0 224.384 100.452 224.384 224.383 0 44.514-13.352 85.771-35.718 120.676l84.863 84.863c18.782 18.782 18.782 49.209 0 67.991zM224.384 64.109c-88.511 0-160.274 71.747-160.274 160.273s71.764 160.274 160.274 160.274c88.525 0 160.273-71.748 160.273-160.274S312.909 64.109 224.384 64.109z"/>
</symbol><symbol id="icon-star" viewBox="0 0 32 32">
    <path d="M31.881 12.557a2.303 2.303 0 0 0-1.844-1.511l-8.326-1.238-3.619-7.514A2.318 2.318 0 0 0 16 1c-.896 0-1.711.505-2.092 1.294l-3.619 7.514-8.327 1.238A2.3 2.3 0 0 0 .12 12.557a2.207 2.207 0 0 0 .537 2.285l6.102 6.092-1.415 8.451a2.224 2.224 0 0 0 .948 2.203 2.351 2.351 0 0 0 2.449.131L16 27.811l7.26 3.908a2.367 2.367 0 0 0 2.449-.131 2.225 2.225 0 0 0 .947-2.203l-1.416-8.451 6.104-6.092c.603-.603.81-1.485.537-2.285zm-8.293 6.806a2.216 2.216 0 0 0-.627 1.934l1.416 8.451-7.26-3.906a2.361 2.361 0 0 0-2.235 0l-7.26 3.906 1.416-8.451a2.212 2.212 0 0 0-.626-1.934L2.31 13.271l8.326-1.24a2.306 2.306 0 0 0 1.743-1.268L16 3.251l3.62 7.513a2.31 2.31 0 0 0 1.742 1.268l8.328 1.24-6.102 6.091z"/>
</symbol><symbol id="icon-tasks" viewBox="0 0 24 24">
    <title/>
    <g fill-rule="evenodd">
        <path d="M3.206 6C3.092 6 3 6.074 3 6.166v14.668c0 .092.092.166.206.166h14.588c.114 0 .206-.074.206-.166V6.166c0-.092-.092-.166-.206-.166H3.206zM4 7v13h13V7H4zm3-2h1V3h13v13h-2v1h3V2H7v3z"/>
    </g>
</symbol></svg>