<?xml version="1.0" encoding="utf-8"?>
<!-- Generator: Adobe Illustrator 19.1.1, SVG Export Plug-In . SVG Version: 6.00 Build 0)  -->
<svg version="1.1" id="Слой_1" xmlns="http://www.w3.org/2000/svg" xmlns:xlink="http://www.w3.org/1999/xlink" x="0px" y="0px"
	 viewBox="0 0 283.5 110.4" style="enable-background:new 0 0 283.5 110.4;" xml:space="preserve">
<style type="text/css">
	.st0{fill-rule:evenodd;clip-rule:evenodd;}
</style>
<g>
	<path class="st0" d="M97.7,36l11.4,7.4c-5.2,8-14.1,12.8-23.6,12.8c-3.7,0-7.3-0.7-10.5-2V43.8c-5.1-3.4-8.4-9.2-8.4-15.7
		c0-6.5,3.3-12.3,8.4-15.7V2c3.2-1.3,6.8-2,10.5-2c9.5,0,18.4,4.8,23.6,12.8l-11.4,7.4c-2.6-4-7.1-6.6-12.2-6.6
		c-8,0-14.5,6.5-14.5,14.5c0,8,6.5,14.5,14.5,14.5C90.7,42.6,95.2,39.9,97.7,36L97.7,36z M197.5,0.1c15.5,0,28,12.6,28,28
		c0,15.5-12.6,28-28,28s-28-12.6-28-28C169.4,12.6,182,0.1,197.5,0.1L197.5,0.1z M197.5,13.6c-8,0-14.5,6.5-14.5,14.5
		c0,8,6.5,14.5,14.5,14.5c8,0,14.5-6.5,14.5-14.5C211.9,20.1,205.5,13.6,197.5,13.6L197.5,13.6z M0,10h12.6c9.8,0,17.7,8,17.7,17.7
		c0,9.8-8,17.7-17.7,17.7H0V10L0,10z M41.7,41.1h18.8v4.4H37.2c0-11.8,0-23.7,0-35.5h23.2v4.4H41.7v11.1h16.6V30H41.7V41.1
		L41.7,41.1z M4.4,14.5v26.6h8.2c7.3,0,13.3-6,13.3-13.3s-6-13.3-13.3-13.3H4.4L4.4,14.5z M283.5,54.5V1.7h-13.7v29l-21.4-29h-14
		v52.8H248V23.9l22.3,30.5H283.5L283.5,54.5z M162.6,19.3c0-9.8-6.6-17.6-18.4-17.6h-26.4v52.8h13.6V36.8h7l8.9,17.7h15.6L152,35.1
		C156.9,33.4,162.6,28.5,162.6,19.3L162.6,19.3z M142.2,24.9h-10.8V13.6h10.8c3.6,0,6.6,2.1,6.6,5.6
		C148.7,22.9,145.7,24.9,142.2,24.9z"/>
	<path d="M167,99.7c0,3.9-2.4,6.3-6.3,6.3c-3.9,0-6.3-2.4-6.3-6.3V81.9h-4.4v17.7c0,6.3,4.4,10.8,10.8,10.8s10.8-4.4,10.8-10.8V81.9
		H167V99.7z M89.5,85.5c1.4,0,2.7,0.3,3.9,0.8c1.2,0.5,2.4,1.3,3.3,2.2l0.4,0.4l3.1-3.1l-0.4-0.4c-1.4-1.4-3-2.4-4.8-3.2
		c-1.8-0.7-3.7-1.1-5.6-1.1c-3.9,0-7.6,1.5-10.4,4.3c-2.7,2.7-4.3,6.5-4.3,10.4c0,3.9,1.5,7.6,4.3,10.4c2.8,2.8,6.5,4.3,10.4,4.3
		c1.9,0,3.8-0.4,5.6-1.1c1.8-0.7,3.4-1.8,4.8-3.2l0.4-0.4l-3.1-3.1l-0.4,0.4c-1,1-2.1,1.7-3.3,2.2c-1.2,0.5-2.6,0.8-3.9,0.8
		c-2.7,0-5.3-1.1-7.3-3c-1.9-1.9-3-4.5-3-7.3c0-2.7,1.1-5.3,3-7.3C84.2,86.5,86.8,85.5,89.5,85.5z M207.8,95.3
		c1.5-1.4,2.3-3.3,2.3-5.4c0-2.1-0.8-4.1-2.4-5.7c-1.5-1.5-3.5-2.3-5.7-2.3H191v27.6h12.2c2.1,0,4.1-0.8,5.7-2.4
		c1.5-1.5,2.3-3.5,2.3-5.6C211.2,99,209.9,96.7,207.8,95.3z M195.4,86.4h6.7c0.9,0,1.8,0.4,2.5,1c0.7,0.7,1,1.6,1,2.5
		c0,0.9-0.4,1.8-1.1,2.5c-0.7,0.7-1.6,1-2.5,1h-6.7V86.4z M205.7,104c-0.7,0.7-1.6,1-2.5,1h-7.7v-7.1h7.7c0.9,0,1.8,0.4,2.5,1
		c0.7,0.7,1,1.6,1,2.5C206.7,102.5,206.3,103.4,205.7,104z M122.3,81.9h-4.4v27.6h17.4v-4.4h-13V81.9z"/>
</g>
</svg>
