<?xml version="1.0" encoding="UTF-8"?><!DOCTYPE svg PUBLIC "-//W3C//DTD SVG 1.1//EN" "http://www.w3.org/Graphics/SVG/1.1/DTD/svg11.dtd"><svg xmlns="http://www.w3.org/2000/svg"><symbol id="icon-facebook" viewBox="0 0 10 19">
    <title>
        facebook
    </title>
    <path d="M9.766.157v2.946H8.014c-.64 0-1.071.134-1.295.402-.223.268-.335.67-.335 1.205v2.11h3.27l-.435 3.303H6.384v8.471H2.97v-8.47H.123V6.82H2.97V4.387c0-1.384.387-2.457 1.161-3.22C4.904.404 5.934.023 7.222.023c1.093 0 1.941.045 2.544.134z" fill-rule="evenodd"/>
</symbol><symbol id="icon-logo" viewBox="0 0 283.5 110.4">
    <style>
        .st0{fill-rule:evenodd;clip-rule:evenodd}
    </style>
    <path class="st0" d="M97.7 36l11.4 7.4c-5.2 8-14.1 12.8-23.6 12.8-3.7 0-7.3-.7-10.5-2V43.8c-5.1-3.4-8.4-9.2-8.4-15.7s3.3-12.3 8.4-15.7V2c3.2-1.3 6.8-2 10.5-2 9.5 0 18.4 4.8 23.6 12.8l-11.4 7.4c-2.6-4-7.1-6.6-12.2-6.6-8 0-14.5 6.5-14.5 14.5s6.5 14.5 14.5 14.5c5.2 0 9.7-2.7 12.2-6.6zM197.5.1c15.5 0 28 12.6 28 28 0 15.5-12.6 28-28 28s-28-12.6-28-28c-.1-15.5 12.5-28 28-28zm0 13.5c-8 0-14.5 6.5-14.5 14.5s6.5 14.5 14.5 14.5S212 36.1 212 28.1c-.1-8-6.5-14.5-14.5-14.5zM0 10h12.6c9.8 0 17.7 8 17.7 17.7 0 9.8-8 17.7-17.7 17.7H0V10zm41.7 31.1h18.8v4.4H37.2V10h23.2v4.4H41.7v11.1h16.6V30H41.7v11.1zM4.4 14.5v26.6h8.2c7.3 0 13.3-6 13.3-13.3s-6-13.3-13.3-13.3H4.4zm279.1 40V1.7h-13.7v29l-21.4-29h-14v52.8H248V23.9l22.3 30.5h13.2v.1zM162.6 19.3c0-9.8-6.6-17.6-18.4-17.6h-26.4v52.8h13.6V36.8h7l8.9 17.7h15.6L152 35.1c4.9-1.7 10.6-6.6 10.6-15.8zm-20.4 5.6h-10.8V13.6h10.8c3.6 0 6.6 2.1 6.6 5.6-.1 3.7-3.1 5.7-6.6 5.7z"/>
    <path d="M167 99.7c0 3.9-2.4 6.3-6.3 6.3s-6.3-2.4-6.3-6.3V81.9H150v17.7c0 6.3 4.4 10.8 10.8 10.8s10.8-4.4 10.8-10.8V81.9H167v17.8zM89.5 85.5c1.4 0 2.7.3 3.9.8 1.2.5 2.4 1.3 3.3 2.2l.4.4 3.1-3.1-.4-.4c-1.4-1.4-3-2.4-4.8-3.2-1.8-.7-3.7-1.1-5.6-1.1-3.9 0-7.6 1.5-10.4 4.3-2.7 2.7-4.3 6.5-4.3 10.4 0 3.9 1.5 7.6 4.3 10.4 2.8 2.8 6.5 4.3 10.4 4.3 1.9 0 3.8-.4 5.6-1.1 1.8-.7 3.4-1.8 4.8-3.2l.4-.4-3.1-3.1-.4.4c-1 1-2.1 1.7-3.3 2.2-1.2.5-2.6.8-3.9.8-2.7 0-5.3-1.1-7.3-3-1.9-1.9-3-4.5-3-7.3 0-2.7 1.1-5.3 3-7.3 2-2 4.6-3 7.3-3zm118.3 9.8c1.5-1.4 2.3-3.3 2.3-5.4 0-2.1-.8-4.1-2.4-5.7-1.5-1.5-3.5-2.3-5.7-2.3h-11v27.6h12.2c2.1 0 4.1-.8 5.7-2.4 1.5-1.5 2.3-3.5 2.3-5.6 0-2.5-1.3-4.8-3.4-6.2zm-12.4-8.9h6.7c.9 0 1.8.4 2.5 1 .7.7 1 1.6 1 2.5 0 .9-.4 1.8-1.1 2.5-.7.7-1.6 1-2.5 1h-6.7v-7zm10.3 17.6c-.7.7-1.6 1-2.5 1h-7.7v-7.1h7.7c.9 0 1.8.4 2.5 1 .7.7 1 1.6 1 2.5 0 1.1-.4 2-1 2.6zm-83.4-22.1h-4.4v27.6h17.4v-4.4h-13V81.9z"/>
</symbol><symbol id="icon-play" viewBox="0 0 10 11">
    <path d="M1.7 11C.8 11 0 10.2 0 9.3V1.7C0 .8.8 0 1.7 0c.3 0 .6.1.9.2L9.1 4c.6.3.9.9.9 1.5S9.7 6.7 9.1 7l-6.5 3.8c-.3.1-.6.2-.9.2zm0-10c-.3 0-.7.3-.7.7v7.5c0 .6.7.9 1.1.6L8.6 6c.3 0 .4-.2.4-.5s-.1-.5-.4-.6L2.1 1.1C2 1 1.9 1 1.7 1z"/>
</symbol></svg>