<?xml version="1.0" encoding="UTF-8" standalone="no"?><svg xmlns="http://www.w3.org/2000/svg" xmlns:xlink="http://www.w3.org/1999/xlink"><symbol id="arrow-down" height="24" viewBox="0 0 24 24" width="24" xmlns="http://www.w3.org/2000/svg"><path clip-rule="evenodd" d="M12.7071 15.7071C12.3166 16.0976 11.6834 16.0976 11.2929 15.7071L5.29289 9.70711C4.90237 9.31658 4.90237 8.68342 5.29289 8.29289C5.68342 7.90237 6.31658 7.90237 6.70711 8.29289L12 13.5858L17.2929 8.29289C17.6834 7.90237 18.3166 7.90237 18.7071 8.29289C19.0976 8.68342 19.0976 9.31658 18.7071 9.70711L12.7071 15.7071Z" fill-rule="evenodd"></path></symbol><symbol id="arrow-left" height="24" viewBox="0 0 24 24" width="24" xmlns="http://www.w3.org/2000/svg"><path clip-rule="evenodd" d="M8.29289 12.7071C7.90237 12.3166 7.90237 11.6834 8.29289 11.2929L14.2929 5.29289C14.6834 4.90237 15.3166 4.90237 15.7071 5.29289C16.0976 5.68342 16.0976 6.31658 15.7071 6.70711L10.4142 12L15.7071 17.2929C16.0976 17.6834 16.0976 18.3166 15.7071 18.7071C15.3166 19.0976 14.6834 19.0976 14.2929 18.7071L8.29289 12.7071Z" fill-rule="evenodd"></path></symbol><symbol id="arrow-up" height="24" viewBox="0 0 24 24" width="24" xmlns="http://www.w3.org/2000/svg"><path clip-rule="evenodd" d="M11.2929 8.29289C11.6834 7.90237 12.3166 7.90237 12.7071 8.29289L18.7071 14.2929C19.0976 14.6834 19.0976 15.3166 18.7071 15.7071C18.3166 16.0976 17.6834 16.0976 17.2929 15.7071L12 10.4142L6.70711 15.7071C6.31658 16.0976 5.68342 16.0976 5.29289 15.7071C4.90237 15.3166 4.90237 14.6834 5.29289 14.2929L11.2929 8.29289Z" fill-rule="evenodd"></path></symbol><symbol id="arrow-right" height="24" viewBox="0 0 24 24" width="24" xmlns="http://www.w3.org/2000/svg"><path clip-rule="evenodd" d="M15.7071 11.2929C16.0976 11.6834 16.0976 12.3166 15.7071 12.7071L9.70711 18.7071C9.31658 19.0976 8.68342 19.0976 8.29289 18.7071C7.90237 18.3166 7.90237 17.6834 8.29289 17.2929L13.5858 12L8.29289 6.70711C7.90237 6.31658 7.90237 5.68342 8.29289 5.29289C8.68342 4.90237 9.31658 4.90237 9.70711 5.29289L15.7071 11.2929Z" fill-rule="evenodd"></path></symbol><symbol id="card" height="24" viewBox="0 0 24 24" width="24" xmlns="http://www.w3.org/2000/svg"><path clip-rule="evenodd" d="M2 8C2 6.34315 3.34315 5 5 5H19C20.6569 5 22 6.34315 22 8V16C22 17.6569 20.6569 19 19 19H5C3.34315 19 2 17.6569 2 16V8ZM5 7C4.44772 7 4 7.44772 4 8V16C4 16.5523 4.44772 17 5 17H19C19.5523 17 20 16.5523 20 16V8C20 7.44772 19.5523 7 19 7H5Z" fill-rule="evenodd"></path><path clip-rule="evenodd" d="M21 11H3V9H21V11Z" fill-rule="evenodd"></path><path clip-rule="evenodd" d="M12 15H6V13H12V15Z" fill-rule="evenodd"></path></symbol><symbol id="call" height="24" viewBox="0 0 24 24" width="24" xmlns="http://www.w3.org/2000/svg"><path clip-rule="evenodd" d="M8.31986 2.86345L10.4641 4.91778L10.4801 4.93348C11.0662 5.52077 11.307 6.33501 11.307 7.0687C11.307 7.80239 11.0662 8.61659 10.4802 9.20388L9.43689 10.2495C9.6825 11.11 10.2679 12.0591 11.0829 12.8813C11.9001 13.7056 12.8489 14.3023 13.7247 14.5515L14.7674 13.5066C15.3537 12.919 16.1672 12.6771 16.901 12.6771C17.6347 12.6771 18.4483 12.919 19.0346 13.5065C19.0346 13.5065 19.0345 13.5065 19.0346 13.5065L21.1732 15.6498C21.7593 16.2371 22 17.0513 22 17.785C22 18.5187 21.7592 19.3329 21.1732 19.9202C19.5784 21.5184 17.498 22 16.5444 22C15.0682 22 13.735 21.9092 12.2001 21.1911C10.7036 20.4911 9.09001 19.2307 6.92613 17.0621C4.73292 14.8641 3.48625 13.0667 2.79662 11.4874C2.09751 9.8863 2 8.57408 2 7.42598C2 6.62283 2.10093 5.85406 2.43709 5.06808C2.76988 4.28998 3.3045 3.56191 4.07447 2.79026C4.67733 2.1861 5.50841 1.97426 6.24022 2.00253C6.96926 2.03069 7.75309 2.30086 8.31986 2.86345ZM6.16302 4.00104C5.83204 3.98825 5.60033 4.09259 5.49022 4.20294C4.83446 4.86013 4.47791 5.38237 4.27596 5.85456C4.07738 6.31887 4 6.80037 4 7.42598C4 8.42121 4.0809 9.43064 4.6295 10.687C5.18757 11.9651 6.25791 13.5609 8.34189 15.6495C10.4552 17.7674 11.871 18.8292 13.0476 19.3796C14.1857 19.912 15.169 20 16.5444 20C17.0513 20 18.5936 19.6738 19.7574 18.5075C19.8843 18.3803 20 18.1229 20 17.7849C20 17.447 19.8843 17.1896 19.7575 17.0625L17.6188 14.9192C17.4923 14.7924 17.2365 14.6771 16.901 14.6771C16.5654 14.6771 16.3097 14.7924 16.1831 14.9192L14.7574 16.3481C14.5349 16.571 14.2205 16.6761 13.9087 16.6318C12.3463 16.4096 10.8211 15.458 9.66259 14.2894C8.5044 13.121 7.57453 11.5964 7.35659 10.0675C7.31224 9.75638 7.41673 9.44251 7.63871 9.22004L9.06444 7.79121C9.19129 7.66408 9.30698 7.40663 9.30698 7.06867C9.30699 6.73581 9.19477 6.48111 9.07022 6.35209L6.9291 4.30078L6.91307 4.28506C6.76753 4.13923 6.49296 4.01378 6.16302 4.00104Z" fill-rule="evenodd"></path></symbol><symbol id="basket" height="24" viewBox="0 0 24 24" width="24" xmlns="http://www.w3.org/2000/svg"><path clip-rule="evenodd" d="M2.17808 10.4304C2.3649 10.1608 2.67203 10 3.00001 10H21C21.328 10 21.6351 10.1608 21.8219 10.4304C22.0087 10.7 22.0515 11.044 21.9363 11.3511L18.9363 19.3511C18.79 19.7414 18.4169 20 18 20H6.00001C5.58316 20 5.21004 19.7414 5.06368 19.3511L2.06368 11.3511C1.94852 11.044 1.99126 10.7 2.17808 10.4304ZM4.44301 12L6.69301 18H17.307L19.557 12H4.44301Z" fill-rule="evenodd"></path><path clip-rule="evenodd" d="M10.6247 5.21914C11.056 5.56415 11.1259 6.19344 10.7809 6.6247L6.78087 11.6247C6.43587 12.056 5.80657 12.1259 5.37531 11.7809C4.94405 11.4359 4.87413 10.8066 5.21914 10.3753L9.21914 5.37531C9.56415 4.94405 10.1934 4.87413 10.6247 5.21914Z" fill-rule="evenodd"></path><path clip-rule="evenodd" d="M13.3753 5.21914C12.944 5.56415 12.8741 6.19344 13.2191 6.6247L17.2191 11.6247C17.5641 12.056 18.1934 12.1259 18.6247 11.7809C19.056 11.4359 19.1259 10.8066 18.7809 10.3753L14.7809 5.37531C14.4359 4.94405 13.8066 4.87413 13.3753 5.21914Z" fill-rule="evenodd"></path><path clip-rule="evenodd" d="M8.00001 13C8.55229 13 9.00001 13.4477 9.00001 14V16C9.00001 16.5523 8.55229 17 8.00001 17C7.44772 17 7.00001 16.5523 7.00001 16V14C7.00001 13.4477 7.44772 13 8.00001 13Z" fill-rule="evenodd"></path><path clip-rule="evenodd" d="M16 13C16.5523 13 17 13.4477 17 14V16C17 16.5523 16.5523 17 16 17C15.4477 17 15 16.5523 15 16V14C15 13.4477 15.4477 13 16 13Z" fill-rule="evenodd"></path><path clip-rule="evenodd" d="M12 13C12.5523 13 13 13.4477 13 14V16C13 16.5523 12.5523 17 12 17C11.4477 17 11 16.5523 11 16V14C11 13.4477 11.4477 13 12 13Z" fill-rule="evenodd"></path></symbol><symbol id="check" style="enable-background:new 0 0 36 36;" version="1.1" viewBox="0 0 36 36" xml:space="preserve" xmlns="http://www.w3.org/2000/svg" xmlns:xlink="http://www.w3.org/1999/xlink"><style type="text/css"><![CDATA[.st0{fill:#222A30;}.st1{fill:none;stroke:#222A30;stroke-width:2.0101;stroke-linejoin:round;stroke-miterlimit:10;}.st2{fill:#171715;}.st3{fill-rule:evenodd;clip-rule:evenodd;fill:#222A30;}]]></style><g><path class="st0" d="M12.8,28.7l-9.5-9.5c-0.4-0.4-0.4-1.1,0-1.6l1.5-1.5c0.4-0.4,1.1-0.4,1.6,0l7.2,7.2   l16-16c0.4-0.4,1.1-0.4,1.6,0l1.5,1.5c0.4,0.4,0.4,1.1,0,1.6L14.4,28.7C13.9,29.1,13.2,29.1,12.8,28.7z"></path></g></symbol><symbol id="close" enable-background="new 0 0 32 32" height="32px" version="1.1" viewBox="0 0 32 32" width="32px" xml:space="preserve" xmlns="http://www.w3.org/2000/svg" xmlns:xlink="http://www.w3.org/1999/xlink"><path d="M17.459,16.014l8.239-8.194c0.395-0.391,0.395-1.024,0-1.414c-0.394-0.391-1.034-0.391-1.428,0  l-8.232,8.187L7.73,6.284c-0.394-0.395-1.034-0.395-1.428,0c-0.394,0.396-0.394,1.037,0,1.432l8.302,8.303l-8.332,8.286  c-0.394,0.391-0.394,1.024,0,1.414c0.394,0.391,1.034,0.391,1.428,0l8.325-8.279l8.275,8.276c0.394,0.395,1.034,0.395,1.428,0  c0.394-0.396,0.394-1.037,0-1.432L17.459,16.014z"></path></symbol><symbol id="delete" height="24" viewBox="0 0 24 24" width="24" xmlns="http://www.w3.org/2000/svg"><path clip-rule="evenodd" d="M6 7C6.55228 7 7 7.44772 7 8V19C7 19.5523 7.44772 20 8 20H16C16.5523 20 17 19.5523 17 19V8C17 7.44772 17.4477 7 18 7C18.5523 7 19 7.44772 19 8V19C19 20.6569 17.6569 22 16 22H8C6.34315 22 5 20.6569 5 19V8C5 7.44772 5.44772 7 6 7Z" fill-rule="evenodd"></path><path clip-rule="evenodd" d="M10 8C10.5523 8 11 8.44772 11 9V17C11 17.5523 10.5523 18 10 18C9.44772 18 9 17.5523 9 17V9C9 8.44772 9.44772 8 10 8Z" fill-rule="evenodd"></path><path clip-rule="evenodd" d="M14 8C14.5523 8 15 8.44772 15 9V17C15 17.5523 14.5523 18 14 18C13.4477 18 13 17.5523 13 17V9C13 8.44772 13.4477 8 14 8Z" fill-rule="evenodd"></path><path d="M4 5C4 4.44772 4.44772 4 5 4H19C19.5523 4 20 4.44772 20 5C20 5.55228 19.5523 6 19 6H5C4.44772 6 4 5.55228 4 5Z"></path><path d="M8 3C8 2.44772 8.44772 2 9 2H15C15.5523 2 16 2.44772 16 3V4H8V3Z"></path></symbol><symbol id="info" height="24" viewBox="0 0 24 24" width="24" xmlns="http://www.w3.org/2000/svg"><path d="M13 17C13 17.5523 12.5523 18 12 18C11.4477 18 11 17.5523 11 17C11 16.4477 11.4477 16 12 16C12.5523 16 13 16.4477 13 17Z"></path><path clip-rule="evenodd" d="M12 6C12.5523 6 13 6.44772 13 7V13C13 13.5523 12.5523 14 12 14C11.4477 14 11 13.5523 11 13V7C11 6.44772 11.4477 6 12 6Z" fill-rule="evenodd"></path><path clip-rule="evenodd" d="M12 4C7.58172 4 4 7.58172 4 12C4 16.4183 7.58172 20 12 20C16.4183 20 20 16.4183 20 12C20 7.58172 16.4183 4 12 4ZM2 12C2 6.47715 6.47715 2 12 2C17.5228 2 22 6.47715 22 12C22 17.5228 17.5228 22 12 22C6.47715 22 2 17.5228 2 12Z" fill-rule="evenodd"></path></symbol><symbol id="discount" height="24" viewBox="0 0 24 24" width="24" xmlns="http://www.w3.org/2000/svg"><path clip-rule="evenodd" d="M18.7071 5.29289C19.0976 5.68342 19.0976 6.31658 18.7071 6.70711L6.70711 18.7071C6.31658 19.0976 5.68342 19.0976 5.29289 18.7071C4.90237 18.3166 4.90237 17.6834 5.29289 17.2929L17.2929 5.29289C17.6834 4.90237 18.3166 4.90237 18.7071 5.29289Z" fill-rule="evenodd"></path><path clip-rule="evenodd" d="M7.5 11C9.433 11 11 9.433 11 7.5C11 5.567 9.433 4 7.5 4C5.567 4 4 5.567 4 7.5C4 9.433 5.567 11 7.5 11ZM7.5 9C8.32843 9 9 8.32843 9 7.5C9 6.67157 8.32843 6 7.5 6C6.67157 6 6 6.67157 6 7.5C6 8.32843 6.67157 9 7.5 9Z" fill-rule="evenodd"></path><path clip-rule="evenodd" d="M16.5 20C18.433 20 20 18.433 20 16.5C20 14.567 18.433 13 16.5 13C14.567 13 13 14.567 13 16.5C13 18.433 14.567 20 16.5 20ZM16.5 18C17.3284 18 18 17.3284 18 16.5C18 15.6716 17.3284 15 16.5 15C15.6716 15 15 15.6716 15 16.5C15 17.3284 15.6716 18 16.5 18Z" fill-rule="evenodd"></path></symbol><symbol id="location" height="24" viewBox="0 0 24 24" width="24" xmlns="http://www.w3.org/2000/svg"><path clip-rule="evenodd" d="M8.2332 5.67114C7.42017 6.68479 7 8.08547 7 9.54545C7 12.5173 8.36744 15.1737 9.8064 17.1359C10.5199 18.1088 11.2345 18.8885 11.7696 19.4236C11.8509 19.5049 11.9279 19.5804 12 19.6499C12.0721 19.5804 12.1491 19.5049 12.2304 19.4236C12.7655 18.8885 13.4801 18.1088 14.1936 17.1359C15.6326 15.1737 17 12.5173 17 9.54545C17 8.08548 16.5798 6.68479 15.7668 5.67114C14.9769 4.68636 13.7668 4 12 4C10.2332 4 9.02308 4.68636 8.2332 5.67114ZM12 21C11.3668 21.774 11.3665 21.7737 11.3662 21.7735L11.3637 21.7714L11.3584 21.7671L11.3415 21.753C11.3274 21.7412 11.3078 21.7247 11.283 21.7035C11.2333 21.6611 11.163 21.6 11.0748 21.521C10.8986 21.3631 10.6508 21.1332 10.3554 20.8378C9.76552 20.2479 8.98014 19.3912 8.19359 18.3186C6.63256 16.1899 5 13.1191 5 9.54545C5 7.73271 5.51733 5.86066 6.67305 4.41977C7.85192 2.95001 9.64176 2 12 2C14.3582 2 16.1481 2.95001 17.3269 4.41977C18.4827 5.86066 19 7.73271 19 9.54545C19 13.1191 17.3674 16.1899 15.8064 18.3186C15.0199 19.3912 14.2345 20.2479 13.6446 20.8378C13.3492 21.1332 13.1014 21.3631 12.9252 21.521C12.837 21.6 12.7667 21.6611 12.717 21.7035C12.6922 21.7247 12.6726 21.7412 12.6585 21.753L12.6416 21.7671L12.6363 21.7714L12.6345 21.7729C12.6342 21.7732 12.6332 21.774 12 21ZM12 21L12.6332 21.774C12.2649 22.0753 11.7346 22.0749 11.3662 21.7735L12 21Z" fill-rule="evenodd"></path><path clip-rule="evenodd" d="M12 8C11.4477 8 11 8.44772 11 9C11 9.55228 11.4477 10 12 10C12.5523 10 13 9.55228 13 9C13 8.44772 12.5523 8 12 8ZM9 9C9 7.34315 10.3431 6 12 6C13.6569 6 15 7.34315 15 9C15 10.6569 13.6569 12 12 12C10.3431 12 9 10.6569 9 9Z" fill-rule="evenodd"></path></symbol><symbol id="plus" height="24" viewBox="0 0 24 24" width="24" xmlns="http://www.w3.org/2000/svg"><path clip-rule="evenodd" d="M12 5C12.5523 5 13 5.44772 13 6V18C13 18.5523 12.5523 19 12 19C11.4477 19 11 18.5523 11 18V6C11 5.44772 11.4477 5 12 5Z" fill-rule="evenodd"></path><path clip-rule="evenodd" d="M5 12C5 11.4477 5.44772 11 6 11H18C18.5523 11 19 11.4477 19 12C19 12.5523 18.5523 13 18 13H6C5.44772 13 5 12.5523 5 12Z" fill-rule="evenodd"></path></symbol><symbol id="edit" height="24" viewBox="0 0 24 24" width="24" xmlns="http://www.w3.org/2000/svg"><path clip-rule="evenodd" d="M20.7071 6.29289C21.0976 6.68342 21.0976 7.31658 20.7071 7.70711L7.70711 20.7071C7.51957 20.8946 7.26522 21 7 21L3 21C2.73478 21 2.48043 20.8946 2.29289 20.7071C2.10536 20.5196 2 20.2652 2 20L2 16C2 15.7348 2.10536 15.4804 2.2929 15.2929L15.2929 2.29289C15.6834 1.90237 16.3166 1.90237 16.7071 2.29289C17.0976 2.68342 17.0976 3.31658 16.7071 3.70711L4 16.4142L4 19L6.58579 19L19.2929 6.29289C19.6834 5.90237 20.3166 5.90237 20.7071 6.29289Z" fill-rule="evenodd"></path><path clip-rule="evenodd" d="M15.2929 2.29289C15.6834 1.90237 16.3166 1.90237 16.7071 2.29289L20.7071 6.29289C21.0976 6.68342 21.0976 7.31658 20.7071 7.70711C20.3166 8.09763 19.6834 8.09763 19.2929 7.70711L15.2929 3.70711C14.9024 3.31658 14.9024 2.68342 15.2929 2.29289Z" fill-rule="evenodd"></path><path clip-rule="evenodd" d="M16.2929 10.7071L12.2929 6.70711L13.7071 5.29289L17.7071 9.29289L16.2929 10.7071Z" fill-rule="evenodd"></path></symbol><symbol id="menu" height="24" viewBox="0 0 24 24" width="24" xmlns="http://www.w3.org/2000/svg"><path clip-rule="evenodd" d="M7 6C7 5.44772 7.44772 5 8 5H20C20.5523 5 21 5.44772 21 6C21 6.55228 20.5523 7 20 7H8C7.44772 7 7 6.55228 7 6Z" fill-rule="evenodd"></path><path clip-rule="evenodd" d="M7 12C7 11.4477 7.44772 11 8 11H20C20.5523 11 21 11.4477 21 12C21 12.5523 20.5523 13 20 13H8C7.44772 13 7 12.5523 7 12Z" fill-rule="evenodd"></path><path clip-rule="evenodd" d="M7 18C7 17.4477 7.44772 17 8 17H20C20.5523 17 21 17.4477 21 18C21 18.5523 20.5523 19 20 19H8C7.44772 19 7 18.5523 7 18Z" fill-rule="evenodd"></path><path d="M5 6C5 6.55228 4.55228 7 4 7C3.44772 7 3 6.55228 3 6C3 5.44772 3.44772 5 4 5C4.55228 5 5 5.44772 5 6Z"></path><path d="M5 12C5 12.5523 4.55228 13 4 13C3.44772 13 3 12.5523 3 12C3 11.4477 3.44772 11 4 11C4.55228 11 5 11.4477 5 12Z"></path><path d="M5 18C5 18.5523 4.55228 19 4 19C3.44772 19 3 18.5523 3 18C3 17.4477 3.44772 17 4 17C4.55228 17 5 17.4477 5 18Z"></path></symbol><symbol id="user" enable-background="new 0 0 26 26" version="1.1" viewBox="0 0 26 26" xml:space="preserve" xmlns="http://www.w3.org/2000/svg" xmlns:xlink="http://www.w3.org/1999/xlink"><path d="M25,13c0-6.6166992-5.3828125-12-12-12S1,6.3833008,1,13c0,3.383606,1.413208,6.4386597,3.673645,8.6222534  c0.0529175,0.0689087,0.1156006,0.1247559,0.1889648,0.171814C7.0038452,23.7769165,9.8582764,25,13,25  s5.9961548-1.2230835,8.1373901-3.2059326c0.0733643-0.0470581,0.1360474-0.1029053,0.1889648-0.171814  C23.586792,19.4386597,25,16.383606,25,13z M13,2.5c5.7900391,0,10.5,4.7104492,10.5,10.5  c0,2.4549561-0.8532715,4.7108154-2.2702637,6.5008545c-0.6505127-2.0978394-2.5076294-3.7401123-5.0281372-4.4957886  c1.3735962-0.9940796,2.2720337-2.6046143,2.2720337-4.4244995c0-3.0141602-2.4550781-5.4663086-5.4736328-5.4663086  s-5.4736328,2.4521484-5.4736328,5.4663086c0,1.8198853,0.8984375,3.4304199,2.2720337,4.4244995  c-2.5205078,0.7556763-4.3776245,2.3979492-5.0281372,4.4957886C3.3532715,17.7108154,2.5,15.4549561,2.5,13  C2.5,7.2104492,7.2099609,2.5,13,2.5z M9.0263672,10.5805664c0-2.1870117,1.7822266-3.9663086,3.9736328-3.9663086  s3.9736328,1.7792969,3.9736328,3.9663086S15.1914063,14.546875,13,14.546875S9.0263672,12.7675781,9.0263672,10.5805664z   M6.0307617,20.8319702C6.2562256,18.0820313,9.1723633,16.046875,13,16.046875s6.7437744,2.0351563,6.9692383,4.7850952  C18.1130981,22.4855347,15.6757202,23.5,13,23.5S7.8869019,22.4855347,6.0307617,20.8319702z"></path></symbol></svg>