<?xml version="1.0" ?><svg fill="none" height="24" viewBox="0 0 24 24" width="24" xmlns="http://www.w3.org/2000/svg"><path clip-rule="evenodd" d="M2.17808 10.4304C2.3649 10.1608 2.67203 10 3.00001 10H21C21.328 10 21.6351 10.1608 21.8219 10.4304C22.0087 10.7 22.0515 11.044 21.9363 11.3511L18.9363 19.3511C18.79 19.7414 18.4169 20 18 20H6.00001C5.58316 20 5.21004 19.7414 5.06368 19.3511L2.06368 11.3511C1.94852 11.044 1.99126 10.7 2.17808 10.4304ZM4.44301 12L6.69301 18H17.307L19.557 12H4.44301Z" fill="black" fill-rule="evenodd"/><path clip-rule="evenodd" d="M10.6247 5.21914C11.056 5.56415 11.1259 6.19344 10.7809 6.6247L6.78087 11.6247C6.43587 12.056 5.80657 12.1259 5.37531 11.7809C4.94405 11.4359 4.87413 10.8066 5.21914 10.3753L9.21914 5.37531C9.56415 4.94405 10.1934 4.87413 10.6247 5.21914Z" fill="black" fill-rule="evenodd"/><path clip-rule="evenodd" d="M13.3753 5.21914C12.944 5.56415 12.8741 6.19344 13.2191 6.6247L17.2191 11.6247C17.5641 12.056 18.1934 12.1259 18.6247 11.7809C19.056 11.4359 19.1259 10.8066 18.7809 10.3753L14.7809 5.37531C14.4359 4.94405 13.8066 4.87413 13.3753 5.21914Z" fill="black" fill-rule="evenodd"/><path clip-rule="evenodd" d="M8.00001 13C8.55229 13 9.00001 13.4477 9.00001 14V16C9.00001 16.5523 8.55229 17 8.00001 17C7.44772 17 7.00001 16.5523 7.00001 16V14C7.00001 13.4477 7.44772 13 8.00001 13Z" fill="black" fill-rule="evenodd"/><path clip-rule="evenodd" d="M16 13C16.5523 13 17 13.4477 17 14V16C17 16.5523 16.5523 17 16 17C15.4477 17 15 16.5523 15 16V14C15 13.4477 15.4477 13 16 13Z" fill="black" fill-rule="evenodd"/><path clip-rule="evenodd" d="M12 13C12.5523 13 13 13.4477 13 14V16C13 16.5523 12.5523 17 12 17C11.4477 17 11 16.5523 11 16V14C11 13.4477 11.4477 13 12 13Z" fill="black" fill-rule="evenodd"/></svg>