<?xml version="1.0" ?>
<svg fill="none" height="24" viewBox="0 0 24 24" width="24" xmlns="http://www.w3.org/2000/svg">
  <path clip-rule="evenodd"
        d="M2 8C2 6.34315 3.34315 5 5 5H19C20.6569 5 22 6.34315 22 8V16C22 17.6569 20.6569 19 19 19H5C3.34315 19 2 17.6569 2 16V8ZM5 7C4.44772 7 4 7.44772 4 8V16C4 16.5523 4.44772 17 5 17H19C19.5523 17 20 16.5523 20 16V8C20 7.44772 19.5523 7 19 7H5Z"
        fill="black" fill-rule="evenodd"/>
  <path clip-rule="evenodd" d="M21 11H3V9H21V11Z" fill="black" fill-rule="evenodd"/>
  <path clip-rule="evenodd" d="M12 15H6V13H12V15Z" fill="black" fill-rule="evenodd"/>
</svg>
