<?xml version="1.0" ?><svg fill="none" height="24" viewBox="0 0 24 24" width="24" xmlns="http://www.w3.org/2000/svg"><path clip-rule="evenodd" d="M20.7071 6.29289C21.0976 6.68342 21.0976 7.31658 20.7071 7.70711L7.70711 20.7071C7.51957 20.8946 7.26522 21 7 21L3 21C2.73478 21 2.48043 20.8946 2.29289 20.7071C2.10536 20.5196 2 20.2652 2 20L2 16C2 15.7348 2.10536 15.4804 2.2929 15.2929L15.2929 2.29289C15.6834 1.90237 16.3166 1.90237 16.7071 2.29289C17.0976 2.68342 17.0976 3.31658 16.7071 3.70711L4 16.4142L4 19L6.58579 19L19.2929 6.29289C19.6834 5.90237 20.3166 5.90237 20.7071 6.29289Z" fill="black" fill-rule="evenodd"/><path clip-rule="evenodd" d="M15.2929 2.29289C15.6834 1.90237 16.3166 1.90237 16.7071 2.29289L20.7071 6.29289C21.0976 6.68342 21.0976 7.31658 20.7071 7.70711C20.3166 8.09763 19.6834 8.09763 19.2929 7.70711L15.2929 3.70711C14.9024 3.31658 14.9024 2.68342 15.2929 2.29289Z" fill="black" fill-rule="evenodd"/><path clip-rule="evenodd" d="M16.2929 10.7071L12.2929 6.70711L13.7071 5.29289L17.7071 9.29289L16.2929 10.7071Z" fill="black" fill-rule="evenodd"/></svg>