<?xml version="1.0" encoding="UTF-8"?><!DOCTYPE svg PUBLIC "-//W3C//DTD SVG 1.1//EN" "http://www.w3.org/Graphics/SVG/1.1/DTD/svg11.dtd"><svg xmlns="http://www.w3.org/2000/svg" xmlns:xlink="http://www.w3.org/1999/xlink"><symbol id="icon-arrow" viewBox="0 0 24 24">
    <path d="M5 12h19"/>
    <path d="M5 12l5-5"/>
    <path d="M5 12l5 5"/>
</symbol><symbol id="icon-burger" viewBox="0 0 24 24">
    <path fill-rule="evenodd" clip-rule="evenodd" d="M4 6a1 1 0 0 1 1-1h9a1 1 0 1 1 0 2H5a1 1 0 0 1-1-1zm0 12a1 1 0 0 1 1-1h9a1 1 0 1 1 0 2H5a1 1 0 0 1-1-1zm1-7a1 1 0 1 0 0 2h14a1 1 0 1 0 0-2H5z"/>
</symbol><symbol id="icon-close-button" viewBox="0 0 24 24">
    <path fill-rule="evenodd" clip-rule="evenodd" d="M12 13.414l5.293 5.293 1.414-1.414L13.414 12l5.293-5.293-1.414-1.414L12 10.586 6.707 5.293 5.293 6.707 10.586 12l-5.293 5.293 1.414 1.414L12 13.414z"/>
</symbol><symbol id="icon-contactIcon" viewBox="0 0 20 16">
    <path d="M2.87 9.5v1.9c.007 1.336.638 1.128 1.105.727L6.67 9.695v1.23c0 1.154.266 1.425 1.425 1.425h4.274s2.475 2.91 2.494 2.89c.357.435 1.321.287 1.306-.515V12.35h1.425c1.164 0 1.425-.29 1.425-1.425V3.8c0-1.14-.28-1.425-1.424-1.425h-4.75v-.95C12.845.252 12.626 0 11.418 0H1.445C.324 0 .02.242.02 1.425V7.6c0 1.159.26 1.9 1.425 1.9H2.87zm11.875 1.425v2.242l-1.9-2.242H8.57c-.357 0-.475-.128-.475-.475V4.275c0-.318.147-.475.475-.475h8.55c.327 0 .474.176.474.447v6.203c0 .343-.17.475-.475.475h-2.374z"/>
</symbol><symbol id="icon-facebook" viewBox="0 0 10 19">
    <title>
        facebook
    </title>
    <path d="M9.766.157v2.946H8.014c-.64 0-1.071.134-1.295.402-.223.268-.335.67-.335 1.205v2.11h3.27l-.435 3.303H6.384v8.471H2.97v-8.47H.123V6.82H2.97V4.387c0-1.384.387-2.457 1.161-3.22C4.904.404 5.934.023 7.222.023c1.093 0 1.941.045 2.544.134z" fill-rule="evenodd"/>
</symbol><symbol id="icon-favourite" viewBox="0 0 24 24">
    <path d="M4 9.2C4 6.8 5.9 5 8.4 5c1.4 0 2.7.6 3.6 1.7.9-1 2.2-1.7 3.6-1.7C18.1 5 20 6.8 20 9.2c0 1.6-1 3-2.2 4.3l-2.9 2.8-2.4 2.2-.5.5-.5-.5L9 16.3l-2.9-2.8C5 12.1 4 10.8 4 9.2z" clip-rule="evenodd"/>
</symbol><symbol id="icon-instagram" viewBox="0 0 128 128">
    <path class="cls-1" d="M83 23a22 22 0 0 1 22 22v38a22 22 0 0 1-22 22H45a22 22 0 0 1-22-22V45a22 22 0 0 1 22-22h38m0-8H45a30.09 30.09 0 0 0-30 30v38a30.09 30.09 0 0 0 30 30h38a30.09 30.09 0 0 0 30-30V45a30.09 30.09 0 0 0-30-30z"/>
    <path class="cls-1" d="M90.14 32a5.73 5.73 0 1 0 5.73 5.73A5.73 5.73 0 0 0 90.14 32z"/>
    <path class="cls-1" d="M64.27 46.47A17.68 17.68 0 1 1 46.6 64.14a17.7 17.7 0 0 1 17.67-17.67m0-8A25.68 25.68 0 1 0 90 64.14a25.68 25.68 0 0 0-25.73-25.67z"/>
</symbol><symbol id="icon-minus" viewBox="0 0 12 2">
    <path d="M12 2V0H0v2h12z"/>
</symbol><symbol id="icon-orderIcon" viewBox="0 0 22 18">
    <path d="M12.52 0a9 9 0 0 0-9 9h-3l3.89 3.89.07.14L8.52 9h-3c0-3.87 3.13-7 7-7s7 3.13 7 7-3.13 7-7 7c-1.93 0-3.68-.79-4.94-2.06l-1.42 1.42A8.954 8.954 0 0 0 12.52 18a9 9 0 1 0 0-18zm-1 5v5l4.28 2.54.72-1.21-3.5-2.08V5h-1.5z"/>
</symbol><symbol id="icon-person" viewBox="0 0 24 24">
    <g opacity=".5">
        <path d="M4.773 15.517c.495-1.25 2.109-1.712 3.355-1.205 1.042.425 2.372.788 3.872.788s2.83-.363 3.872-.788c1.246-.507 2.86-.046 3.355 1.205l.69 1.747A2 2 0 0 1 18.059 20H5.942a2 2 0 0 1-1.86-2.736l.691-1.747z"/>
        <circle cx="12" cy="8" r="4"/>
    </g>
</symbol><symbol id="icon-phone" viewBox="0 0 512 512">
    <style>
        .st0{display:inline}.st1{fill:none;stroke:#000;stroke-width:16;stroke-linecap:round;stroke-linejoin:round;stroke-miterlimit:10}.st2{display:none}
    </style>
    <g class="st2" id="layer">
        <g class="st0">
            <path class="st1" d="M305.989 359.513s-2.375-32.569 5.408-38.409c23.362-17.522 100.801-8.773 115.922 16.14 12.7 20.925 4.435 72.46-12.151 86.932-6.96 6.073-36.078 8.325-36.078 8.325-78.748-1.229-150.286-31.834-204.024-81.283l-14.822-14.738c-49.729-53.436-80.506-124.57-81.743-202.875 0 0 2.264-28.956 8.371-35.876 14.555-16.492 66.382-24.711 87.425-12.083 25.054 15.036 33.853 92.039 16.23 115.269-5.872 7.74-38.626 5.378-38.626 5.378"/>
            <path class="st1" d="M306.12 359.39c-39.6-13.083-74.731-35.871-102.549-65.532l14.356 14.275c-29.83-27.66-52.748-62.594-65.904-101.97"/>
        </g>
    </g>
    <path d="M434.158 333.092c-9.802-16.148-35.668-23.274-50.215-26.086-26.549-5.13-60.764-4.74-77.348 7.698-5.459 4.097-8.178 12.563-8.813 27.452a153.061 153.061 0 0 0-.131 5.693c-28.178-10.883-54.189-27.118-76.389-47.683l-9.749-9.694c-20.652-22.044-36.964-47.872-47.903-75.845 1.829-.009 3.76-.046 5.738-.129 14.942-.631 23.439-3.33 27.551-8.75 12.455-16.417 12.906-50.315 7.828-76.626-2.815-14.591-9.979-40.531-26.315-50.335-16.252-9.754-41.371-7.401-51.417-5.935-20.725 3.021-37.967 10.344-46.124 19.586-7.108 8.055-9.605 31.042-10.348 40.55-.02.25-.027.507-.023.758 1.223 77.447 31.015 151.402 83.886 208.214.071.075.143.181.216.254l14.822 14.801c.073.073.147.271.224.339C226.771 409.916 301.107 439 378.965 441h.124c.206 0 .412-.258.618-.273 9.55-.739 32.636-3.469 40.721-10.523 9.302-8.116 16.671-25.277 19.713-45.907 1.474-10.003 3.843-35.015-5.983-51.205zm-9.846 48.87c-2.391 16.212-8.179 30.754-14.396 36.179-2.787 2.297-17.248 5.247-31.076 6.354-73.738-1.243-144.123-29.31-198.244-79.062l-14.6-14.519c-50.022-53.803-78.239-123.763-79.489-197.06 1.105-13.715 4.063-28.065 6.364-30.833 5.469-6.196 20.111-11.958 36.436-14.338 17.123-2.497 32.787-1.033 40.875 3.822 7.804 4.684 15.023 19.876 18.839 39.649 5.008 25.95 2.982 53.224-4.697 63.7-3.101 2.178-17.161 3.345-30.349 2.556a7.965 7.965 0 0 0-4.484.165 7.97 7.97 0 0 0-3.32 2.135 7.976 7.976 0 0 0-2.249 5.007 7.955 7.955 0 0 0 1.096 4.646c11.06 32.332 28.753 62.276 51.766 87.73.272.435.59.85.954 1.238a255.927 255.927 0 0 0 7.263 7.433 252.036 252.036 0 0 0 7.49 7.236c.391.362.808.678 1.244.947 25.59 22.873 55.694 40.465 88.193 51.458a7.923 7.923 0 0 0 4.643 1.086 7.959 7.959 0 0 0 5.03-2.282c.134-.126.254-.264.38-.399l.104-.118a7.936 7.936 0 0 0 1.634-2.791 7.941 7.941 0 0 0 .153-4.473c-.787-13.079.378-27.013 2.556-30.091 10.622-7.701 38.23-9.693 64.483-4.62 19.729 3.813 34.894 10.97 39.572 18.678 4.868 8.022 6.335 23.567 3.829 40.567z" id="layer_copy"/>
</symbol><symbol id="icon-plus" viewBox="0 0 24 24">
    <path fill="currentColor" d="M24 10H14V0h-4v10H0v4h10v10h4V14h10z"/>
</symbol><symbol id="icon-search" viewBox="0 0 24 24">
    <path fill-rule="evenodd" clip-rule="evenodd" d="M16 10.5a5.5 5.5 0 1 1-11 0 5.5 5.5 0 0 1 11 0zm-.613 5.69a7.5 7.5 0 1 1 1.33-1.494l4.825 4.135a1 1 0 0 1-1.301 1.518l-4.854-4.16z"/>
</symbol><symbol id="icon-small-plus" viewBox="0 0 12 12">
    <path d="M4.92 12h2.16V6.986H12V5.014H7.08V0H4.92v5.014H0v1.972h4.92V12z"/>
</symbol><symbol id="icon-telegram" viewBox="0 0 1024 1024">
    <path d="M908.524 124.334C782.531 176.517 242.289 400.292 93.021 461.281c-100.106 39.066-41.503 75.694-41.503 75.694s85.453 29.297 158.71 51.272c73.247 21.975 112.312-2.437 112.312-2.437l344.269-231.956c122.081-83.016 92.785-14.653 63.478 14.653-63.478 63.488-168.468 163.584-256.369 244.163-39.066 34.181-19.538 63.478-2.437 78.131 63.478 53.719 236.841 163.594 246.6 170.916 51.579 36.516 153.037 89.078 168.468-21.975l61.041-383.334c19.538-129.403 39.066-249.047 41.503-283.228 7.332-83.026-80.568-48.845-80.568-48.845z"/>
</symbol><symbol id="icon-viber" viewBox="0 0 24 24">
    <path d="M11.398.002C9.473.028 5.331.344 3.014 2.467 1.294 4.177.693 6.698.623 9.82c-.06 3.11-.13 8.95 5.5 10.541v2.42s-.038.97.602 1.17c.79.25 1.24-.499 1.99-1.299l1.4-1.58c3.85.32 6.8-.419 7.14-.529.78-.25 5.181-.811 5.901-6.652.74-6.031-.36-9.831-2.34-11.551l-.01-.002c-.6-.55-3-2.3-8.37-2.32 0 0-.396-.025-1.038-.016zm.067 1.697c.545-.003.88.02.88.02 4.54.01 6.711 1.38 7.221 1.84 1.67 1.429 2.528 4.856 1.9 9.892-.6 4.88-4.17 5.19-4.83 5.4-.28.09-2.88.73-6.152.52 0 0-2.439 2.941-3.199 3.701-.12.13-.26.17-.35.15-.13-.03-.17-.19-.16-.41l.02-4.019c-4.771-1.32-4.491-6.302-4.441-8.902.06-2.6.55-4.732 2-6.172 1.957-1.77 5.475-2.01 7.11-2.02zm.36 2.6a.299.299 0 0 0-.3.299.3.3 0 0 0 .3.3 5.631 5.631 0 0 1 4.03 1.59c1.09 1.06 1.621 2.48 1.641 4.34a.3.3 0 0 0 .3.3v-.009a.3.3 0 0 0 .3-.3 6.451 6.451 0 0 0-1.81-4.76c-1.19-1.16-2.692-1.76-4.462-1.76zm-3.954.69a.955.955 0 0 0-.615.12h-.012c-.41.24-.788.54-1.148.94-.27.32-.421.639-.461.949a1.24 1.24 0 0 0 .05.541l.02.01a13.722 13.722 0 0 0 1.2 2.6 15.383 15.383 0 0 0 2.32 3.171l.03.04.04.03.03.03.03.03a15.603 15.603 0 0 0 3.18 2.33c1.32.72 2.122 1.06 2.602 1.2v.01c.14.04.268.06.398.06a1.84 1.84 0 0 0 1.102-.472c.39-.35.7-.738.93-1.148v-.01c.23-.43.15-.841-.18-1.121a13.632 13.632 0 0 0-2.15-1.54c-.51-.28-1.03-.11-1.24.17l-.45.569c-.23.28-.65.24-.65.24l-.012.01c-3.12-.8-3.95-3.959-3.95-3.959s-.04-.43.25-.65l.56-.45c.27-.22.46-.74.17-1.25a13.522 13.522 0 0 0-1.54-2.15.843.843 0 0 0-.504-.3zm4.473.89a.3.3 0 0 0 .002.6 3.78 3.78 0 0 1 2.65 1.15 3.5 3.5 0 0 1 .9 2.57.3.3 0 0 0 .3.299l.01.012a.3.3 0 0 0 .3-.301c.03-1.19-.34-2.19-1.07-2.99-.73-.8-1.75-1.25-3.05-1.34a.3.3 0 0 0-.042 0zm.49 1.619a.305.305 0 0 0-.018.611c.99.05 1.47.55 1.53 1.58a.3.3 0 0 0 .3.29h.01a.3.3 0 0 0 .29-.32c-.07-1.34-.8-2.091-2.1-2.161a.305.305 0 0 0-.012 0z"/>
</symbol></svg>