<svg xmlns="http://www.w3.org/2000/svg" xmlns:xlink="http://www.w3.org/1999/xlink" preserveAspectRatio="xMidYMid" width="32" height="28" viewBox="0 0 32 28">
  <defs>
    <style>
      .cls-1 {
        fill: #959da3;
        fill-rule: evenodd;
      }
    </style>
  </defs>
  <path d="M30.000,22.034 L13.469,22.034 L7.687,27.726 C7.496,27.913 7.243,28.013 6.985,28.013 C6.855,28.013 6.724,27.988 6.599,27.935 C6.228,27.780 5.985,27.416 5.985,27.013 L5.985,22.034 L2.000,22.034 C0.896,22.034 0.000,21.139 0.000,20.035 L0.000,1.987 C0.000,0.883 0.896,-0.012 2.000,-0.012 L30.000,-0.012 C31.104,-0.012 32.000,0.883 32.000,1.987 L32.000,20.035 C32.000,21.139 31.104,22.034 30.000,22.034 ZM30.000,1.987 L2.000,1.987 L2.000,20.035 L7.985,20.035 L7.985,24.626 L12.650,20.035 L30.000,20.035 L30.000,1.987 ZM6.000,15.031 C6.000,14.479 6.448,14.032 7.000,14.032 L19.000,14.032 C19.552,14.032 20.000,14.479 20.000,15.031 C20.000,15.584 19.552,16.031 19.000,16.031 L7.000,16.031 C6.448,16.031 6.000,15.584 6.000,15.031 ZM6.000,11.031 C6.000,10.479 6.448,10.031 7.000,10.031 L25.000,10.031 C25.552,10.031 26.000,10.479 26.000,11.031 C26.000,11.584 25.552,12.032 25.000,12.032 L7.000,12.032 C6.448,12.032 6.000,11.584 6.000,11.031 ZM25.000,8.032 L7.000,8.032 C6.448,8.032 6.000,7.584 6.000,7.031 C6.000,6.480 6.448,6.032 7.000,6.032 L25.000,6.032 C25.552,6.032 26.000,6.480 26.000,7.031 C26.000,7.584 25.552,8.032 25.000,8.032 Z" class="cls-1"/>
</svg>
