<svg xmlns="http://www.w3.org/2000/svg" xmlns:xlink="http://www.w3.org/1999/xlink" preserveAspectRatio="xMidYMid" width="32" height="32" viewBox="0 0 32 32">
  <defs>
    <style>
      .cls-1 {
        fill: #959da3;
        fill-rule: evenodd;
      }
    </style>
  </defs>
  <path d="M27.000,10.000 C25.341,10.000 23.882,9.184 22.973,7.940 L9.707,14.377 C9.884,14.889 10.000,15.429 10.000,16.000 C10.000,16.457 9.919,16.890 9.805,17.310 L22.996,24.033 C23.907,22.806 25.354,22.000 27.000,22.000 C29.761,22.000 32.000,24.239 32.000,27.000 C32.000,29.761 29.761,32.000 27.000,32.000 C24.239,32.000 22.000,29.761 22.000,27.000 C22.000,26.599 22.060,26.214 22.149,25.840 L8.903,19.090 C7.987,20.245 6.589,21.000 5.000,21.000 C2.239,21.000 0.000,18.762 0.000,16.000 C0.000,13.239 2.239,11.000 5.000,11.000 C6.468,11.000 7.775,11.644 8.689,12.651 L22.138,6.125 C22.054,5.762 22.000,5.388 22.000,5.000 C22.000,2.239 24.239,0.000 27.000,0.000 C29.761,0.000 32.000,2.239 32.000,5.000 C32.000,7.762 29.761,10.000 27.000,10.000 ZM27.000,30.000 C28.657,30.000 30.000,28.657 30.000,27.000 C30.000,25.343 28.657,24.000 27.000,24.000 C25.343,24.000 24.000,25.343 24.000,27.000 C24.000,28.657 25.343,30.000 27.000,30.000 ZM5.000,13.000 C3.343,13.000 2.000,14.344 2.000,16.000 C2.000,17.657 3.343,19.000 5.000,19.000 C6.657,19.000 8.000,17.657 8.000,16.000 C8.000,14.344 6.657,13.000 5.000,13.000 ZM27.000,2.000 C25.343,2.000 24.000,3.343 24.000,5.000 C24.000,6.657 25.343,8.000 27.000,8.000 C28.657,8.000 30.000,6.657 30.000,5.000 C30.000,3.343 28.657,2.000 27.000,2.000 Z" class="cls-1"/>
</svg>
