<svg xmlns="http://www.w3.org/2000/svg" xmlns:xlink="http://www.w3.org/1999/xlink" preserveAspectRatio="xMidYMid" width="22" height="18" viewBox="0 0 22 18">
  <defs>
    <style>
      .cls-1 {
        fill: #959da3;
        fill-rule: evenodd;
      }
    </style>
  </defs>
  <path d="M21.999,15.000 C21.999,16.656 20.656,17.999 18.999,17.999 L13.000,17.999 C12.228,17.999 11.531,17.699 11.000,17.220 C10.468,17.699 9.771,17.999 8.999,17.999 L3.000,17.999 C1.343,17.999 -0.000,16.656 -0.000,15.000 L-0.000,11.000 C-0.000,10.228 0.300,9.531 0.779,9.000 C0.300,8.468 -0.000,7.772 -0.000,7.000 L-0.000,3.000 C-0.000,1.343 1.343,0.000 3.000,0.000 L8.999,0.000 C9.771,0.000 10.468,0.300 11.000,0.779 C11.531,0.300 12.228,0.000 13.000,0.000 L18.999,0.000 C20.656,0.000 21.999,1.343 21.999,3.000 L21.999,7.000 C21.999,7.772 21.699,8.468 21.220,9.000 C21.699,9.531 21.999,10.228 21.999,11.000 L21.999,15.000 ZM12.000,12.171 L12.000,13.829 L12.000,15.000 C12.000,15.552 12.448,16.000 13.000,16.000 L14.828,16.000 L17.171,16.000 L18.999,16.000 C19.552,16.000 19.999,15.552 19.999,15.000 L19.999,13.829 L19.999,12.171 L19.999,11.000 C19.999,10.448 19.552,10.000 18.999,10.000 L17.171,10.000 L14.828,10.000 L13.000,10.000 C12.448,10.000 12.000,10.448 12.000,11.000 L12.000,12.171 ZM9.999,5.829 L9.999,4.171 L9.999,3.000 C9.999,2.448 9.552,2.000 8.999,2.000 L7.171,2.000 L4.828,2.000 L3.000,2.000 C2.448,2.000 2.000,2.448 2.000,3.000 L2.000,4.171 L2.000,5.829 L2.000,7.000 C2.000,7.552 2.448,8.000 3.000,8.000 L4.828,8.000 L7.171,8.000 L8.999,8.000 C9.552,8.000 9.999,7.552 9.999,7.000 L9.999,5.829 ZM9.999,13.829 L9.999,12.171 L9.999,11.000 C9.999,10.448 9.552,10.000 8.999,10.000 L7.171,10.000 L4.828,10.000 L3.000,10.000 C2.448,10.000 2.000,10.448 2.000,11.000 L2.000,12.171 L2.000,13.829 L2.000,15.000 C2.000,15.552 2.448,16.000 3.000,16.000 L4.828,16.000 L7.171,16.000 L8.999,16.000 C9.552,16.000 9.999,15.552 9.999,15.000 L9.999,13.829 ZM19.999,5.829 L19.999,4.171 L19.999,3.000 C19.999,2.448 19.552,2.000 18.999,2.000 L17.171,2.000 L14.828,2.000 L13.000,2.000 C12.448,2.000 12.000,2.448 12.000,3.000 L12.000,4.171 L12.000,5.829 L12.000,7.000 C12.000,7.552 12.448,8.000 13.000,8.000 L14.828,8.000 L17.171,8.000 L18.999,8.000 C19.552,8.000 19.999,7.552 19.999,7.000 L19.999,5.829 Z" class="cls-1"/>
</svg>
