<svg xmlns="http://www.w3.org/2000/svg" xmlns:xlink="http://www.w3.org/1999/xlink" preserveAspectRatio="xMidYMid" width="31.969" height="32" viewBox="0 0 31.969 32">
  <defs>
    <style>
      .cls-1 {
        fill: #959da3;
        fill-rule: evenodd;
      }
    </style>
  </defs>
  <path d="M30.067,11.092 L26.038,15.121 C24.768,16.391 23.105,17.025 21.442,17.025 C20.593,17.025 19.775,16.921 18.979,16.590 L20.572,14.996 C20.866,15.055 21.136,15.025 21.442,15.025 C22.643,15.025 23.774,14.557 24.624,13.707 L28.663,9.669 C30.407,7.924 30.407,5.069 28.653,3.314 C27.803,2.464 26.673,1.996 25.471,1.996 C24.268,1.996 23.140,2.464 22.289,3.314 L18.250,7.228 C17.048,8.431 16.695,10.157 17.154,11.691 L15.602,13.242 C14.423,10.818 14.833,7.817 16.846,5.804 L20.875,1.900 C22.143,0.631 23.807,-0.004 25.471,-0.004 C27.135,-0.004 28.798,0.631 30.067,1.900 C32.605,4.439 32.605,8.554 30.067,11.092 ZM9.915,23.183 C9.660,23.183 9.404,23.085 9.208,22.889 C8.818,22.499 8.818,21.866 9.208,21.475 L21.323,9.266 C21.714,8.876 22.347,8.876 22.737,9.266 C23.128,9.657 23.128,10.290 22.737,10.680 L10.622,22.889 C10.427,23.085 10.171,23.183 9.915,23.183 ZM10.403,16.944 C9.201,16.944 8.071,17.413 7.221,18.262 L3.275,22.333 C1.531,24.077 1.531,26.933 3.285,28.687 C4.135,29.537 5.265,30.004 6.467,30.004 C7.669,30.004 8.799,29.537 9.649,28.687 L13.688,24.773 C14.814,23.648 15.171,22.216 14.840,20.760 L16.426,19.174 C17.454,21.550 17.034,24.256 15.093,26.197 L11.063,30.101 C9.794,31.371 8.131,32.004 6.467,32.004 C4.803,32.004 3.140,31.371 1.871,30.101 C-0.667,27.562 -0.667,23.447 1.871,20.909 L5.806,16.848 C7.075,15.579 8.739,14.945 10.403,14.945 C11.346,14.945 12.285,15.156 13.157,15.563 L11.595,17.125 C11.210,17.019 10.814,16.944 10.403,16.944 Z" class="cls-1"/>
</svg>
