<svg xmlns="http://www.w3.org/2000/svg" xmlns:xlink="http://www.w3.org/1999/xlink" preserveAspectRatio="xMidYMid" width="32" height="32" viewBox="0 0 32 32">
  <defs>
    <style>
      .cls-1 {
        fill: #fff;
        fill-rule: evenodd;
      }
    </style>
  </defs>
  <path d="M31.819,1.306 L19.058,31.140 C18.816,31.705 18.461,31.992 18.088,31.992 C17.751,31.992 17.401,31.756 17.110,31.281 L12.055,22.999 C11.444,21.999 10.134,20.675 9.143,20.057 L0.710,14.802 C-0.281,14.183 -0.213,13.304 0.861,12.847 L30.703,0.176 C30.971,0.063 31.203,0.008 31.393,0.008 C31.968,0.008 32.165,0.497 31.819,1.306 ZM17.911,28.638 L27.750,5.637 L12.917,20.733 C13.270,21.149 13.594,21.566 13.834,21.960 L17.911,28.638 ZM10.185,18.274 C10.611,18.540 11.064,18.907 11.514,19.305 L26.281,4.278 L3.350,14.014 L10.185,18.274 Z" class="cls-1"/>
</svg>
